<?xml version="1.0" encoding="UTF-8" standalone="no"?>
<!-- Created with Inkscape (http://www.inkscape.org/) -->

<svg
   xmlns:dc="http://purl.org/dc/elements/1.1/"
   xmlns:cc="http://creativecommons.org/ns#"
   xmlns:rdf="http://www.w3.org/1999/02/22-rdf-syntax-ns#"
   xmlns:svg="http://www.w3.org/2000/svg"
   xmlns="http://www.w3.org/2000/svg"
   xmlns:sodipodi="http://sodipodi.sourceforge.net/DTD/sodipodi-0.dtd"
   xmlns:inkscape="http://www.inkscape.org/namespaces/inkscape"
   width="256"
   height="256"
   viewBox="0 0 67.733332 67.733335"
   version="1.1"
   id="svg2596"
   inkscape:version="0.92.2 (5c3e80d, 2017-08-06)"
   sodipodi:docname="food.svg">
  <defs
     id="defs2590" />
  <sodipodi:namedview
     id="base"
     pagecolor="#ffffff"
     bordercolor="#666666"
     borderopacity="1.0"
     inkscape:pageopacity="0.0"
     inkscape:pageshadow="2"
     inkscape:zoom="0.7"
     inkscape:cx="381.50324"
     inkscape:cy="180.09322"
     inkscape:document-units="mm"
     inkscape:current-layer="layer1"
     showgrid="false"
     units="px"
     inkscape:window-width="1920"
     inkscape:window-height="1017"
     inkscape:window-x="-8"
     inkscape:window-y="-8"
     inkscape:window-maximized="1" />
  <metadata
     id="metadata2593">
    <rdf:RDF>
      <cc:Work
         rdf:about="">
        <dc:format>image/svg+xml</dc:format>
        <dc:type
           rdf:resource="http://purl.org/dc/dcmitype/StillImage" />
        <dc:title></dc:title>
      </cc:Work>
    </rdf:RDF>
  </metadata>
  <g
     inkscape:label="Layer 1"
     inkscape:groupmode="layer"
     id="layer1"
     transform="translate(0,-229.26665)">
    <g
       style="display:inline;fill:#ffcc00"
       transform="matrix(2.1166664,0,0,2.1166664,-87.989718,-2783.6898)"
       id="layer1-8"
       inkscape:label="Background">
      <flowRoot
         xml:space="preserve"
         id="flowRoot6174-3"
         style="font-style:normal;font-weight:normal;line-height:0.01%;font-family:sans-serif;letter-spacing:0px;word-spacing:0px;fill:#ffcc00;fill-opacity:1;stroke:none;stroke-width:1px;stroke-linecap:butt;stroke-linejoin:miter;stroke-opacity:1"
         transform="translate(-826.54811,661.84972)"><flowRegion
           id="flowRegion6176-6"
           style="fill:#ffcc00"><rect
             id="rect6178-9"
             width="196"
             height="32.5"
             x="372"
             y="186.88647"
             style="fill:#ffcc00" /></flowRegion><flowPara
           style="font-size:40px;line-height:1.25;fill:#ffcc00"
           id="flowPara6180-19">ss</flowPara></flowRoot>      <g
         style="fill:#ffcc00"
         transform="matrix(-0.88280451,0,0,0.88280451,-64.890234,505.21106)"
         id="g11318">
        <path
           style="fill:#ffcc00;fill-rule:evenodd;stroke:none;stroke-width:1px;stroke-linecap:butt;stroke-linejoin:miter;stroke-opacity:1"
           d="m -140.00869,1040.1319 c 0.11628,0.01 0.23924,0.011 0.34961,0.027 h -0.34961 z m -1,0 v 0.027 h -0.35157 c 0.11077,-0.016 0.23485,-0.018 0.35157,-0.027 z m 3.59961,1.0274 c 0.53482,0.4556 0.91638,1.0012 1.19336,1.5469 h -1.2461 v -1.5469 h 0.0527 z m -1.05274,0 v 1.5469 h -1.54687 v -1.5469 z m -2.54687,0 v 1.5469 h -1.54688 v -1.5469 z m -2.54688,0 v 1.5469 h -1.24609 c 0.27702,-0.5458 0.65841,-1.0913 1.19336,-1.5469 h 0.0527 z m 7.64063,2.5469 v 1.5468 h -1.54688 v -1.5468 z m -2.54688,0 v 1.5468 h -1.54687 v -1.5468 z m -2.54687,0 v 1.5468 h -1.54688 v -1.5468 z m -2.54688,0 v 1.5468 h -1.54687 v -1.5468 z m 7.64063,2.5468 v 1.5469 h -1.54688 v -1.5469 z m -2.54688,0 v 1.5469 h -1.54687 v -1.5469 z m -2.54687,0 v 1.5469 h -1.54688 v -1.5469 z m -2.54688,0 v 1.5469 h -1.54687 v -1.5469 z m 7.64063,2.5469 v 1.5469 h -1.54688 v -1.5469 z m -2.54688,0 v 1.5469 h -1.54687 v -1.5469 z m -2.54687,0 v 1.5469 h -1.54688 v -1.5469 z m -2.54688,0 v 1.5469 h -1.54687 v -1.5469 z m 7.64063,2.5469 v 1.5469 h -1.54688 v -1.5469 z m -2.54688,0 v 1.5469 h -1.54687 v -1.5469 z m -2.54687,0 v 1.5469 h -1.54688 v -1.5469 z m -2.54688,0 v 1.5469 h -1.54687 v -1.5469 z m 7.64063,2.5469 v 1.5468 h -1.54688 v -1.5468 z m -2.54688,0 v 1.5468 h -1.54687 v -1.5468 z m -2.54687,0 v 1.5468 h -1.54688 v -1.5468 z m -2.54688,0 v 1.5468 h -1.54687 v -1.5468 z m 7.64063,2.5468 v 1.5469 h -1.54688 v -1.5469 z m -2.54688,0 v 1.5469 h -1.54687 v -1.5469 z m -2.54687,0 v 1.5469 h -1.54688 v -1.5469 z m -2.54688,0 v 1.5469 h -1.54687 v -1.5469 z m 7.64063,2.5469 v 1.5469 h -1.54688 v -1.5469 z m -2.54688,0 v 1.5469 h -1.54687 v -1.5469 z m -2.54687,0 v 1.5469 h -1.54688 v -1.5469 z m -2.54688,0 v 1.5469 h -1.00195 c -0.17447,-0.1623 -0.36099,-0.3224 -0.54492,-0.4824 v -1.0645 z m 7.64063,2.5469 v 1.5469 h -1.54688 v -1.5469 z m -2.54688,0 v 1.5469 h -1.54687 v -1.5469 z m -2.54687,0 v 1.5469 h -1.23242 c -0.10185,-0.1333 -0.20753,-0.2659 -0.31446,-0.3985 v -1.1484 z m -4.00781,0 c 0.53365,0.5076 1.01553,1.0247 1.45703,1.5469 h -1.54297 v -1.5469 h 0.0859 z m 9.10156,2.5469 v 1.5468 h -1.54688 v -1.5468 z m -2.54688,0 v 1.5468 h -1.54687 v -1.5468 z m -2.54687,0 v 0.8183 c -0.16306,-0.2733 -0.33342,-0.5456 -0.51563,-0.8183 z m -2.54688,0 v 1.5468 h -1.54687 v -1.5468 z m 1,0.3007 c 0.29147,0.4147 0.55942,0.8303 0.80274,1.2461 h -0.80274 z m 6.64063,2.2461 v 3.4688 h -1.54688 v -3.4688 z m -2.54688,0 v 3.4688 h -0.42773 c -0.0315,-0.1296 -0.0492,-0.2517 -0.084,-0.3828 -0.24858,-0.9375 -0.58948,-1.9125 -1.03515,-2.9024 v -0.1836 h 1.54687 z m -2.74414,0 c 0.0707,0.1411 0.13153,0.2813 0.19727,0.4219 v 3.0469 h -1.54688 v -3.4688 z m -2.34961,0 v 3.4688 h -1.54687 v -3.4688 z m 3.54688,3.1289 c 0.0197,0.071 0.0497,0.1447 0.0684,0.2149 0.0115,0.043 0.0182,0.082 0.0293,0.125 h -0.0976 v -0.3399 z"
           id="path10679"
           inkscape:connector-curvature="0" />
        <path
           inkscape:connector-curvature="0"
           style="fill:#ffcc00;fill-rule:evenodd;stroke:none;stroke-width:1px;stroke-linecap:butt;stroke-linejoin:miter;stroke-opacity:1"
           d="m -132.41211,144.94336 c -0.37833,-0.006 -0.7607,0.0154 -1.14453,0.0684 -1.53533,0.2116 -3.0985,0.93086 -4.57227,2.47266 -0.84176,0.8806 -1.43722,1.79711 -1.84961,2.72265 0.65127,1.27458 1.11747,2.5349 1.43555,3.73438 0.49157,1.85373 0.64203,3.55037 0.65235,4.9375 0.32036,-0.67346 0.73252,-1.43214 1.32226,-2.31055 1.94826,-2.9018 5.47851,-6.32155 11.47852,-8.74805 -0.66898,-0.5272 -2.00323,-1.50719 -4.06836,-2.24219 -1.01745,-0.36219 -2.11889,-0.61876 -3.25391,-0.63476 z m -8.02734,6.63086 c -0.48275,1.87482 -0.32152,3.73842 0.10351,5.37695 0.39929,1.53933 0.91609,2.64903 1.36524,3.46485 0.14617,-1.35753 0.21533,-3.37202 -0.53907,-6.2168 -0.22543,-0.85011 -0.53181,-1.73084 -0.92968,-2.625 z"
           transform="translate(-0.43005273,915.77256)"
           id="path10675" />
        <path
           inkscape:connector-curvature="0"
           style="fill:#ffcc00;fill-rule:evenodd;stroke:none;stroke-width:1px;stroke-linecap:butt;stroke-linejoin:miter;stroke-opacity:1"
           d="m -151.26562,141.3125 c -0.0331,0.21469 -0.0751,0.51694 -0.11329,0.89062 -0.0765,0.74758 -0.13882,1.77889 -0.0859,2.96094 0.0132,0.29519 0.0334,0.59843 0.0625,0.91016 0.0291,0.31236 0.0671,0.63035 0.11523,0.95508 0.0961,0.64807 0.23309,1.31628 0.42383,1.98828 0.0955,0.33661 0.2042,0.6735 0.32812,1.00976 0.1237,0.33565 0.26282,0.66893 0.41797,1 2.6e-4,5.5e-4 -2.6e-4,10e-4 0,0.002 0.15496,0.33054 0.32621,0.65674 0.51563,0.97851 0.18995,0.3228 0.39725,0.63947 0.625,0.94922 0.22739,0.30926 0.47399,0.61032 0.74218,0.90235 0.2682,0.29202 0.55899,0.57513 0.8711,0.8457 1.0908,0.9456 2.0098,1.60982 2.80469,2.09961 1.3248,0.81632 2.30224,1.14872 3.13671,1.49609 0.5007,0.20843 0.96616,0.43185 1.39258,0.76953 0.14215,0.11256 0.28113,0.23703 0.41407,0.37891 0.059,0.063 0.11418,0.1442 0.16796,0.23633 0.0538,0.0921 0.10539,0.19437 0.15625,0.30078 0.102,0.21329 0.20048,0.43973 0.30469,0.62109 0.0396,-0.33933 0.0759,-0.72308 0.0957,-1.15625 0.0198,-0.43186 0.0221,-0.91144 -0.004,-1.4414 -3e-5,-5.9e-4 3e-5,-10e-4 0,-0.002 -0.0261,-0.53023 -0.0816,-1.11097 -0.17969,-1.74414 -9e-5,-6e-4 9e-5,-10e-4 0,-0.002 -0.0492,-0.31699 -0.10951,-0.64655 -0.18164,-0.99024 -0.0721,-0.34368 -0.15553,-0.70129 -0.25391,-1.07226 -0.28387,-1.0705 -0.68835,-2.18937 -1.2539,-3.32227 -0.14104,-0.28258 -0.29341,-0.56596 -0.45508,-0.84961 -2.7e-4,-4.7e-4 2.7e-4,-0.001 0,-0.002 -0.162,-0.28416 -0.33363,-0.56747 -0.51758,-0.85156 -0.3679,-0.56818 -0.78093,-1.1342 -1.24414,-1.69531 -3e-4,-3.7e-4 3.1e-4,-0.002 0,-0.002 -0.2316,-0.28055 -0.47707,-0.55885 -0.73437,-0.83594 -0.25731,-0.27709 -0.52826,-0.55172 -0.8125,-0.82421 -0.28391,-0.27217 -0.58055,-0.54215 -0.89258,-0.8086 -3.8e-4,-3.2e-4 -0.002,3.2e-4 -0.002,0 -0.6245,-0.5332 -1.30615,-1.05507 -2.05078,-1.55859 -4.4e-4,-3e-4 -0.002,3e-4 -0.002,0 -1.11772,-0.7557 -2.37463,-1.47338 -3.79101,-2.13672 z"
           transform="translate(-0.43005273,915.77256)"
           id="path10677" />
      </g>
    </g>
  </g>
</svg>
