<?xml version="1.0" encoding="UTF-8" standalone="no"?>
<!-- Created with Inkscape (http://www.inkscape.org/) -->

<svg
   xmlns:dc="http://purl.org/dc/elements/1.1/"
   xmlns:cc="http://creativecommons.org/ns#"
   xmlns:rdf="http://www.w3.org/1999/02/22-rdf-syntax-ns#"
   xmlns:svg="http://www.w3.org/2000/svg"
   xmlns="http://www.w3.org/2000/svg"
   xmlns:sodipodi="http://sodipodi.sourceforge.net/DTD/sodipodi-0.dtd"
   xmlns:inkscape="http://www.inkscape.org/namespaces/inkscape"
   width="256"
   height="256"
   viewBox="0 0 67.733332 67.733335"
   version="1.1"
   id="svg1470"
   inkscape:version="0.92.2 (5c3e80d, 2017-08-06)"
   sodipodi:docname="psychosocialFascism.svg">
  <defs
     id="defs1464" />
  <sodipodi:namedview
     id="base"
     pagecolor="#ffffff"
     bordercolor="#666666"
     borderopacity="1.0"
     inkscape:pageopacity="0.0"
     inkscape:pageshadow="2"
     inkscape:zoom="0.49497475"
     inkscape:cx="39.178167"
     inkscape:cy="307.24903"
     inkscape:document-units="mm"
     inkscape:current-layer="layer1"
     showgrid="false"
     units="px"
     inkscape:window-width="1920"
     inkscape:window-height="1017"
     inkscape:window-x="-8"
     inkscape:window-y="-8"
     inkscape:window-maximized="1" />
  <metadata
     id="metadata1467">
    <rdf:RDF>
      <cc:Work
         rdf:about="">
        <dc:format>image/svg+xml</dc:format>
        <dc:type
           rdf:resource="http://purl.org/dc/dcmitype/StillImage" />
        <dc:title></dc:title>
      </cc:Work>
    </rdf:RDF>
  </metadata>
  <g
     inkscape:label="Layer 1"
     inkscape:groupmode="layer"
     id="layer1"
     transform="translate(0,-229.26665)">
    <g
       transform="matrix(0.52916667,0,0,0.52916667,-144.98925,9.4636653)"
       id="layer1-95"
       inkscape:label="Layer 1"
       style="fill:#c83737;fill-opacity:1;stroke-width:3.87878799">
      <g
         inkscape:label="Layer 1"
         id="layer1-0"
         transform="matrix(0.31295694,0,0,0.31295694,225.1937,305.1108)"
         style="fill:#c83737;fill-opacity:1;stroke-width:3.87878799">
        <path
           style="fill:#c83737;fill-opacity:1;fill-rule:evenodd;stroke:none;stroke-width:3.87878799px;stroke-linecap:butt;stroke-linejoin:miter;stroke-opacity:1"
           d="m 289.79982,352.33255 -122.73243,24.24414 17.17188,4.54492 -20.70899,61.11524 16.66797,9.08984 -19.69726,57.58008 19.69726,3.53516 -8.58593,59.5996 59.09375,6.56446 12.62695,50.50781 -49.37305,68.54102 c 45.83037,40.92456 105.09809,63.58654 166.54102,63.67968 61.40147,-0.11396 120.62451,-22.76567 166.42969,-63.65625 l -49.38867,-68.56445 12.62695,-50.50781 59.09375,-6.56446 -8.58594,-59.5996 19.69922,-3.53516 -19.69922,-57.58008 16.66797,-9.08984 -20.70898,-61.11524 17.17382,-4.54492 -122.73437,-24.24414 -70.63672,43.10156 z m 2.55664,66.71875 h 33.33594 c 0,0 -26.72619,60.75428 -10,77.48047 16.72619,16.72619 34.95117,20 34.95117,20 V 419.0513 h 19.71289 v 97.48047 c 0,0 18.22693,-3.27382 34.95312,-20 16.72619,-16.7262 -10,-77.48047 -10,-77.48047 h 33.33399 l 40,119.70313 h -98.28711 v 63.64062 h -19.71289 v -63.64062 h -98.28711 z"
           id="path3347-0"
           inkscape:connector-curvature="0"
           sodipodi:nodetypes="cccccccccccccccccccccccccccsccccsccccccccc" />
      </g>
    </g>
  </g>
</svg>
